<?xml version="1.0" standalone="no"?>
<!DOCTYPE svg PUBLIC "-//W3C//DTD SVG 20010904//EN"
 "http://www.w3.org/TR/2001/REC-SVG-20010904/DTD/svg10.dtd">
<svg version="1.0" xmlns="http://www.w3.org/2000/svg"
 width="706.000000pt" height="706.000000pt" viewBox="0 0 706.000000 706.000000"
 preserveAspectRatio="xMidYMid meet">
<metadata>
Created by potrace 1.14, written by Peter Selinger 2001-2017
</metadata>
<g transform="translate(0.000000,706.000000) scale(0.100000,-0.100000)"
fill="#000000" stroke="none">
<path d="M3407 7044 c-1 -1 -54 -5 -117 -8 -63 -4 -126 -8 -140 -10 -25 -4
-104 -15 -150 -21 -65 -9 -177 -30 -208 -39 -9 -3 -30 -8 -47 -11 -16 -3 -73
-16 -125 -30 -52 -14 -103 -27 -112 -30 -9 -2 -27 -9 -40 -16 -13 -7 -23 -11
-23 -9 0 2 -31 -7 -70 -20 -38 -14 -72 -25 -75 -25 -12 -4 -80 -32 -163 -68
-21 -9 -44 -17 -52 -17 -7 0 -15 -3 -17 -7 -1 -5 -21 -16 -43 -27 -200 -93
-400 -212 -565 -334 -25 -19 -58 -43 -74 -55 -101 -75 -204 -166 -336 -297
-134 -134 -220 -231 -310 -350 -14 -18 -30 -38 -35 -44 -6 -6 -28 -38 -50 -71
-22 -33 -46 -66 -53 -73 -6 -7 -12 -17 -12 -22 0 -5 -6 -15 -13 -22 -17 -18
-77 -117 -77 -128 0 -5 -3 -10 -7 -12 -40 -17 -281 -559 -329 -738 -25 -92
-75 -291 -79 -310 -3 -14 -7 -36 -10 -50 -3 -14 -7 -36 -9 -50 -3 -14 -8 -45
-12 -70 -4 -25 -8 -52 -9 -60 -1 -8 -5 -35 -8 -60 -4 -25 -9 -67 -13 -95 -8
-63 -13 -607 -6 -620 3 -5 7 -29 8 -52 5 -75 38 -308 44 -308 1 0 3 -11 5 -25
7 -56 16 -98 44 -205 12 -44 24 -89 26 -99 16 -72 99 -301 156 -436 38 -87
167 -340 189 -368 11 -13 20 -29 20 -33 0 -22 238 -359 317 -449 92 -107 134
-151 229 -245 61 -60 137 -132 169 -160 32 -27 64 -56 71 -63 7 -6 15 -12 18
-12 3 0 15 -8 25 -17 52 -48 207 -161 233 -169 9 -3 19 -12 22 -20 3 -8 10
-14 16 -14 5 0 42 -21 81 -46 132 -84 398 -221 422 -216 4 1 7 -2 7 -7 0 -5
12 -12 27 -16 15 -3 45 -15 68 -25 74 -33 320 -117 372 -126 6 -1 27 -7 45
-13 18 -6 44 -13 58 -15 14 -3 55 -12 91 -20 36 -8 79 -16 95 -19 16 -3 40 -7
54 -11 14 -3 45 -8 70 -11 25 -3 59 -7 75 -10 224 -38 650 -37 920 1 22 3 51
7 65 9 87 11 113 16 119 19 3 2 22 7 41 10 29 4 118 25 220 50 90 23 260 77
315 100 17 7 46 19 65 26 51 18 64 23 195 85 66 32 134 64 150 71 17 8 37 19
45 24 45 28 151 90 156 90 2 0 10 5 17 10 7 6 41 29 77 52 36 23 67 45 68 50
2 4 8 8 14 8 9 0 205 146 234 175 6 5 32 28 59 50 121 99 351 342 465 489 30
39 57 73 60 76 3 3 28 39 55 80 28 41 52 77 55 80 12 11 90 142 90 150 0 4 3
10 8 12 24 11 195 367 262 548 63 168 136 430 156 555 4 28 9 52 9 55 1 3 5
28 10 55 4 28 9 59 11 70 7 35 17 139 18 177 1 21 4 38 7 38 7 0 8 532 1 544
-3 6 -6 28 -7 50 -5 89 -36 299 -62 411 -3 17 -8 37 -9 45 -1 8 -10 44 -19 80
-9 36 -18 73 -20 82 -2 9 -9 26 -15 37 -6 12 -8 21 -6 21 3 0 1 12 -5 28 -6
15 -12 34 -14 42 -6 30 -63 187 -96 265 -18 44 -32 83 -31 88 1 4 -3 7 -8 7
-5 0 -9 3 -8 8 3 7 -111 242 -122 252 -3 3 -12 18 -20 35 -40 80 -218 354
-252 388 -10 10 -18 21 -18 25 0 4 -12 21 -27 38 -16 17 -46 52 -68 80 -62 77
-111 130 -231 249 -143 141 -220 209 -348 305 -26 19 -52 40 -59 45 -7 6 -59
41 -117 79 -58 38 -117 77 -132 87 -15 11 -29 19 -32 19 -3 0 -29 14 -58 31
-116 69 -318 165 -458 218 -30 11 -68 26 -85 32 -16 7 -39 14 -49 16 -11 2
-25 8 -33 14 -7 6 -13 9 -13 5 0 -3 -17 1 -37 9 -21 9 -39 16 -41 15 -5 -1
-58 12 -82 21 -14 5 -34 10 -45 12 -11 2 -38 9 -60 15 -22 6 -53 14 -70 16
-16 3 -41 8 -55 11 -14 3 -38 8 -55 10 -16 3 -39 6 -50 9 -29 6 -94 15 -140
21 -22 3 -50 7 -62 9 -51 11 -507 28 -516 20z"/>
</g>
</svg>
