<?xml version="1.0" standalone="no"?>
<!DOCTYPE svg PUBLIC "-//W3C//DTD SVG 20010904//EN"
 "http://www.w3.org/TR/2001/REC-SVG-20010904/DTD/svg10.dtd">
<svg version="1.0" xmlns="http://www.w3.org/2000/svg"
 width="700.000000pt" height="700.000000pt" viewBox="0 0 700.000000 700.000000"
 preserveAspectRatio="xMidYMid meet">
<metadata>
Created by potrace 1.14, written by Peter Selinger 2001-2017
</metadata>
<g transform="translate(0.000000,700.000000) scale(0.100000,-0.100000)"
fill="#000000" stroke="none">
<path d="M3129 6996 c-2 -2 -67 -6 -144 -10 -145 -6 -235 -12 -318 -22 -26 -2
-71 -7 -100 -10 -54 -5 -299 -40 -352 -50 -532 -97 -935 -257 -1250 -497 -44
-33 -85 -66 -91 -71 -96 -90 -181 -177 -232 -239 -63 -76 -177 -241 -208 -300
-108 -207 -180 -380 -233 -562 -51 -174 -110 -446 -126 -580 -4 -27 -8 -61
-11 -75 -2 -14 -6 -50 -10 -80 -3 -30 -7 -65 -9 -76 -2 -12 -6 -61 -10 -110
-4 -49 -9 -100 -11 -114 -25 -205 -25 -1169 1 -1405 2 -22 6 -69 9 -105 7 -82
14 -146 26 -235 6 -38 12 -86 14 -105 7 -57 20 -127 62 -335 10 -53 15 -72 48
-190 54 -198 148 -435 228 -577 21 -37 38 -70 38 -73 0 -3 30 -49 66 -103 276
-403 632 -663 1149 -839 93 -31 247 -75 305 -87 14 -2 68 -14 120 -25 53 -11
113 -23 134 -27 21 -3 48 -7 60 -10 29 -6 231 -32 291 -38 28 -3 73 -8 100
-11 307 -35 1306 -42 1530 -10 17 2 64 6 105 10 41 3 91 7 110 9 19 3 59 7 89
11 30 3 64 8 75 10 12 2 43 7 70 10 27 3 83 12 125 20 42 8 92 17 111 20 19 3
100 22 180 42 530 131 941 358 1230 679 85 94 101 115 175 225 281 420 438
961 500 1734 32 387 26 1197 -10 1535 -3 30 -8 75 -11 100 -135 1267 -622
1986 -1569 2320 -160 56 -406 121 -545 144 -19 3 -46 8 -60 11 -26 5 -91 16
-125 20 -81 11 -189 25 -235 30 -30 3 -71 8 -90 10 -19 2 -78 7 -130 11 -52 3
-117 8 -145 11 -61 5 -921 13 -926 9z m861 -709 c25 -3 83 -8 130 -11 47 -4
96 -9 110 -11 14 -2 48 -7 75 -10 50 -5 113 -14 150 -21 10 -2 37 -6 60 -9
196 -29 440 -98 632 -181 516 -222 831 -597 1001 -1189 12 -38 32 -122 46
-185 22 -100 31 -149 51 -280 37 -243 50 -486 50 -915 -1 -313 -4 -418 -20
-606 -5 -54 -23 -213 -30 -259 -2 -14 -7 -45 -10 -70 -33 -234 -122 -541 -219
-752 -126 -276 -347 -532 -596 -690 -261 -167 -635 -291 -1035 -344 -27 -3
-57 -8 -66 -9 -9 -2 -52 -7 -95 -11 -43 -3 -92 -8 -109 -10 -181 -19 -848 -26
-1080 -11 -113 8 -144 10 -255 21 -71 7 -212 26 -240 31 -14 3 -65 12 -115 21
-49 8 -92 17 -95 19 -4 2 -22 7 -41 10 -19 3 -74 17 -124 31 -594 168 -965
470 -1194 972 -58 128 -133 352 -157 472 -3 13 -12 56 -20 95 -8 38 -17 86
-20 105 -3 19 -9 60 -14 90 -5 30 -14 100 -20 155 -6 55 -13 118 -15 140 -28
244 -27 940 0 1255 56 633 211 1101 473 1429 196 246 478 434 828 552 98 33
153 48 309 85 43 10 210 40 275 48 209 27 275 34 430 42 63 3 117 8 119 9 4 5
776 -3 831 -8z"/>
<path d="M3778 5475 c-2 -1 -43 -5 -93 -8 -328 -20 -596 -165 -760 -412 -91
-138 -161 -323 -189 -500 -2 -16 -8 -50 -12 -75 -7 -47 -9 -56 -18 -130 -4
-25 -8 -52 -11 -60 -2 -8 -7 -37 -10 -65 -3 -27 -15 -108 -26 -180 -11 -71
-22 -146 -25 -165 -5 -36 -32 -215 -39 -260 -2 -14 -7 -45 -10 -70 -8 -58 -15
-105 -24 -155 l-6 -40 -200 -68 c-313 -107 -322 -111 -347 -154 -9 -15 -19
-52 -22 -82 -4 -29 -11 -84 -16 -122 -6 -38 -12 -91 -15 -117 -3 -26 -10 -71
-15 -101 -15 -85 -13 -126 10 -146 26 -24 4 -30 380 104 63 23 119 41 125 41
6 0 10 -46 9 -132 -1 -72 2 -148 7 -167 4 -20 10 -52 13 -71 16 -104 91 -275
154 -352 127 -153 313 -257 542 -304 109 -22 372 -27 490 -9 263 40 524 149
700 294 48 40 69 76 65 111 -5 38 -173 363 -197 381 -28 22 -59 16 -128 -26
-107 -65 -258 -124 -359 -141 -18 -3 -43 -8 -55 -10 -30 -6 -176 -5 -211 1
-134 25 -239 97 -281 192 -27 60 -42 145 -38 206 7 100 16 176 27 235 l12 64
175 62 c199 72 268 100 395 163 86 44 225 121 235 133 3 3 25 18 50 34 244
158 493 452 598 706 13 30 27 64 32 75 12 26 36 116 50 186 57 285 2 578 -146
781 -48 65 -167 173 -233 212 -136 78 -292 124 -456 132 -49 3 -98 7 -107 8
-9 2 -18 3 -20 1z m153 -654 c106 -55 162 -183 153 -354 -5 -99 -24 -169 -71
-262 -105 -209 -303 -386 -590 -529 -61 -31 -114 -56 -117 -56 -3 0 -3 8 -2
18 2 9 7 39 10 65 4 27 9 57 11 67 4 22 12 72 20 125 3 22 15 96 26 165 11 69
22 143 25 165 2 22 9 63 14 90 5 28 12 70 15 95 17 123 77 288 121 335 78 82
143 107 260 102 59 -2 92 -9 125 -26z"/>
</g>
</svg>
