<svg width="642" height="106" viewBox="0 0 642 106" fill="none" xmlns="http://www.w3.org/2000/svg">
<path d="M5.856 88H30.912C51.552 88 64.416 75.808 64.416 55.456C64.416 35.104 51.552 22.72 30.912 22.72H5.856V88ZM30.912 75.52H21.216V35.2H30.912C42.144 35.2 48.672 42.688 48.672 55.456C48.672 68.128 42.144 75.52 30.912 75.52ZM73.1483 31.168H87.8363V18.88H73.1483V31.168ZM73.1483 88H87.8363V36.352H73.1483V88ZM97.7108 88H112.399V58.336C112.399 51.712 115.759 46.624 120.847 46.624C125.551 46.624 127.855 49.984 127.855 56.512V88H142.447V58.336C142.447 51.712 145.903 46.624 150.991 46.624C155.695 46.624 157.903 49.984 157.903 56.512V88H172.591V53.536C172.591 40.768 165.487 34.72 155.887 34.72C149.455 34.72 143.983 37.408 140.431 43.264C137.839 37.504 132.655 34.72 126.511 34.72C120.559 34.72 115.663 37.312 112.399 42.88V36.352H97.7108V88ZM182.555 31.168H197.243V18.88H182.555V31.168ZM182.555 88H197.243V36.352H182.555V88ZM209.037 71.2C209.037 83.2 214.317 89.536 225.357 89.536C229.293 89.536 232.557 88.96 234.189 88.192V77.152H231.405C225.069 77.152 223.725 74.368 223.725 69.376V47.488H234.285V36.352H223.725V24.352H209.037V36.352H202.701V47.488H209.037V71.2ZM255.267 53.44C255.939 49.408 258.627 46.624 263.619 46.624C269.283 46.624 272.067 49.6 272.067 55.264V56.416C264.099 56.512 257.667 57.184 250.947 59.392C242.787 62.272 238.755 67.648 238.755 74.656C238.755 84.544 246.051 89.536 255.843 89.536C261.987 89.536 268.131 87.136 272.163 81.568C272.259 84.064 272.547 86.272 273.027 88H288.195C287.331 85.312 286.755 81.856 286.755 75.136V55.36C286.755 43.36 279.075 34.72 264.291 34.72C251.043 34.72 242.115 41.824 240.579 53.44H255.267ZM253.443 73.696C253.443 68.896 257.187 65.248 272.067 64.96V66.976C272.067 74.08 266.883 79.36 260.355 79.36C256.035 79.36 253.443 77.152 253.443 73.696ZM297.211 88H311.899V61.312C311.899 53.152 315.835 48.16 324.667 48.16C326.971 48.16 328.795 48.352 330.523 48.736V36.352C329.467 35.296 327.547 34.72 325.435 34.72C320.155 34.72 315.163 37.408 311.899 43.552V36.352H297.211V88ZM355.356 88H399.42V75.52H370.716V22.72H355.356V88ZM437.735 66.016C437.735 72.64 434.087 77.632 428.423 77.632C423.239 77.632 420.743 74.368 420.743 67.744V36.352H406.055V70.72C406.055 83.584 413.255 89.536 423.047 89.536C429.286 89.536 434.375 86.848 437.735 81.088V88H452.423V36.352H437.735V66.016ZM462.398 31.168H477.086V18.88H462.398V31.168ZM462.398 88H477.086V36.352H462.398V88ZM484.849 88H530.257V76.864H502.225L528.721 47.488V36.352H485.905V47.488H511.345L484.849 76.864V88ZM559.878 89.536C575.238 89.536 585.318 79.648 585.318 62.176C585.318 45.28 575.526 34.72 559.878 34.72C544.518 34.72 534.534 44.608 534.534 62.176C534.534 79.168 544.23 89.536 559.878 89.536ZM559.878 77.632C553.254 77.632 549.606 72.16 549.606 62.176C549.606 52.096 553.158 46.624 559.878 46.624C566.598 46.624 570.246 52.192 570.246 62.176C570.246 72.256 566.694 77.632 559.878 77.632ZM605.026 88H623.17L641.41 36.352H626.338L615.778 70.528L614.434 76.768L613.09 70.528L602.626 36.352H586.786L605.026 88Z" fill="#11181C"/>
</svg>
