<svg width="553" height="553" viewBox="0 0 553 553" fill="none" xmlns="http://www.w3.org/2000/svg">
<g clip-path="url(#clip0)">
<path d="M539.175 -0.000183105H13.825C6.18966 -0.000183105 0 6.18948 0 13.8248V539.175C0 546.81 6.18966 553 13.825 553H539.175C546.81 553 553 546.81 553 539.175V13.8248C553 6.18948 546.81 -0.000183105 539.175 -0.000183105Z" fill="#3D91FF"/>
<g filter="url(#filter0_f)">
<path d="M93.3221 390.857L99.9619 566.099L202.584 718.242L690.842 388.908L510.998 122.279L382.013 136.96L284.183 393.623L93.3221 390.857Z" fill="#C27DF2"/>
</g>
<g style="mix-blend-mode:overlay" filter="url(#filter1_f)">
<path d="M363.136 192.88L194.721 -10.1182L-132.059 73.2063L-196.705 599.315L294.967 625.294L281.331 437.213L103.558 526.724L-102.193 310.343L363.137 192.871L363.136 192.88Z" fill="#F8F8F2"/>
</g>
<path d="M380.138 367.505C380.254 367.505 380.456 367.505 380.746 367.505C381.615 367.621 382.397 367.795 383.093 368.026C383.788 368.316 384.339 368.838 384.744 369.591C384.86 369.823 384.918 370.141 384.918 370.547C384.918 370.952 384.802 371.329 384.57 371.677C384.281 372.082 383.904 372.43 383.44 372.72C383.035 373.067 382.687 373.241 382.397 373.241C380.775 373.473 379.182 373.473 377.617 373.241C341.693 365.187 300.495 359.972 254.025 357.597C207.555 355.279 163.606 356.148 122.177 360.204C120.265 360.32 118.497 360.523 116.875 360.812C115.195 360.928 113.659 361.044 112.269 361.16C107.517 361.798 102.998 363.768 98.71 367.07C88.7438 374.893 78.2852 381.788 67.334 387.756C58.9323 392.333 50.5885 394.883 42.3027 395.404C38.8262 395.636 35.8132 395.115 33.2637 393.84C30.7142 392.565 29.5264 390.653 29.7002 388.104C29.8161 385.554 31.1488 382.831 33.6982 379.934C37.7542 375.82 43.2588 372.285 50.2119 369.33C57.165 366.433 64.263 364.057 71.5059 362.203C78.8066 360.349 84.9196 358.987 89.8447 358.118C96.3923 356.959 102.447 353.975 108.01 349.166C134.663 326.684 161.694 301.247 189.101 272.855C216.507 244.406 242.9 215.145 268.279 185.072C293.658 155 316.546 126.202 336.941 98.6797C337.811 97.2311 338.854 95.9854 340.07 94.9424C341.287 93.8415 342.794 93.0882 344.59 92.6826C346.212 92.4508 347.429 92.7695 348.24 93.6387C349.109 94.4499 349.167 95.6087 348.414 97.1152C346.502 100.708 344.329 104.213 341.896 107.632C322.369 133.764 300.64 160.997 276.71 189.331C252.838 217.607 228.038 245.188 202.312 272.073C176.585 298.959 151.293 323.295 126.436 345.081C121.163 349.543 119.106 352.121 120.265 352.816C121.424 353.57 124.176 353.541 128.521 352.729C129.391 352.614 130.347 352.498 131.39 352.382C164.533 348.789 197.966 347.688 231.688 349.079C265.411 350.528 298.062 353.541 329.641 358.118C340.766 359.799 351.543 361.711 361.973 363.854C368.115 365.129 374.17 366.346 380.138 367.505ZM49.9512 387.147C61.1341 383.207 71.4479 376.979 80.8926 368.461C70.1732 369.214 59.7145 372.459 49.5166 378.195C46.2139 380.107 44.012 381.962 42.9111 383.758C41.8682 385.554 41.8971 386.858 42.998 387.669C44.1569 388.48 46.4746 388.306 49.9512 387.147ZM231.24 317.616C225.735 317.616 223.997 314.748 226.025 309.012C228.575 302.001 237.643 289.63 253.229 271.899C253.867 271.146 254.62 270.77 255.489 270.77C259.197 270.77 260.53 272.218 259.487 275.115C259.139 276.158 258.386 277.433 257.227 278.939C256.706 279.345 250.854 286.993 239.671 301.885C237.874 304.318 236.774 306.115 236.368 307.273C235.846 308.548 236.165 309.186 237.324 309.186C241.554 309.186 256.474 298.669 282.085 277.636C285.387 274.797 288.198 273.377 290.515 273.377C293.818 273.377 295.035 274.594 294.166 277.027C293.876 277.954 291.558 281.46 287.213 287.544C281.36 295.83 278.261 300.61 277.913 301.885C277.102 303.797 277.333 304.753 278.608 304.753C281.795 304.753 293.21 299.075 312.852 287.718C314.011 286.965 314.909 286.588 315.547 286.588C316.937 286.588 317.198 287.805 316.329 290.238C316.039 290.876 315.663 291.397 315.199 291.803C304.48 298.814 295.614 304.145 288.603 307.795C282.114 311.156 276.812 312.836 272.698 312.836H271.568C266.064 311.561 264.789 306.897 267.744 298.843C259.342 304.463 252.389 309.012 246.885 312.488C241.438 315.907 236.223 317.616 231.24 317.616ZM345.247 296.409C340.785 300.06 335.889 303.42 330.558 306.491C325.228 309.562 319.694 311.648 313.958 312.749C308.222 313.792 304.223 313.386 301.964 311.532C299.762 309.678 300.689 305.564 304.745 299.19C309.438 292.585 314.914 286.298 321.172 280.33C322.562 279.055 324.214 278.157 326.126 277.636C327.574 277.346 328.646 277.578 329.342 278.331C330.037 279.026 330.008 279.924 329.255 281.025C327.69 283.111 326.01 285.197 324.214 287.283C322.475 289.369 321.288 290.731 320.65 291.368C317.174 295.076 314.363 298.959 312.22 303.015C311.292 305.332 314.306 305.477 321.259 303.449C328.212 301.421 335.599 297.713 343.422 292.324C351.302 286.878 354.692 285.284 353.591 287.544C352.49 289.746 349.709 292.701 345.247 296.409ZM340.727 267.293C340.322 267.525 339.598 267.814 338.555 268.162C337.57 268.452 336.527 268.684 335.426 268.857C334.325 268.973 333.571 268.799 333.166 268.336C332.818 267.872 333.166 266.945 334.209 265.555C336.005 263.121 337.714 261.006 339.337 259.21C341.017 257.356 343.132 255.328 345.681 253.126C347.072 252.141 348.376 251.619 349.593 251.562C350.809 251.446 351.708 251.764 352.287 252.518C352.866 253.213 352.693 254.198 351.765 255.473C348.868 260.05 345.189 263.99 340.727 267.293ZM364.274 298.234C361.435 299.799 359.928 300.9 359.755 301.537C359.581 302.174 360.16 302.551 361.493 302.667C362.826 302.783 364.303 302.841 365.926 302.841C366.447 302.725 366.911 302.667 367.316 302.667C372.763 302.783 377.804 303.536 382.439 304.927C383.83 305.448 385.018 306.173 386.003 307.1C386.176 307.215 386.263 307.273 386.263 307.273C386.379 307.389 386.437 307.65 386.437 308.056C386.437 308.403 386.292 308.722 386.003 309.012C386.003 309.243 385.8 309.475 385.394 309.707C385.047 309.881 384.699 310.026 384.351 310.142C383.192 310.373 382.149 310.431 381.222 310.315C370.909 309.041 360.392 308.461 349.673 308.577C347.645 308.577 345.559 308.577 343.415 308.577C342.777 308.577 342.082 308.635 341.329 308.751C339.648 308.925 338.229 308.896 337.07 308.664C335.911 308.374 335.477 307.389 335.766 305.709C335.882 304.434 336.462 303.507 337.505 302.928C338.606 302.348 339.938 301.885 341.503 301.537C342.372 301.247 343.328 300.871 344.371 300.407C355.206 295.308 365.983 289.688 376.703 283.546C380.991 281.112 384.989 278.302 388.697 275.115C389.856 274.13 390.319 273.232 390.088 272.421C389.914 271.552 389.276 271.059 388.176 270.943C384.351 270.538 380.382 270.856 376.268 271.899C376.152 271.899 376.094 271.899 376.094 271.899C373.139 272.653 370.155 273.348 367.142 273.985C365.578 274.217 364.535 273.783 364.013 272.682C363.782 272.044 363.984 271.378 364.622 270.683C365.259 269.929 366.273 269.321 367.664 268.857C377.224 265.381 386.35 264.164 395.042 265.207C397.07 265.555 398.837 266.192 400.343 267.119C403.414 269.031 403.299 271.755 399.996 275.289C396.403 279.113 392.26 282.387 387.567 285.11C381.193 288.761 374.762 292.382 368.272 295.975C366.882 296.728 365.549 297.481 364.274 298.234ZM406.772 312.401H406.598C398.196 312.285 393.329 310.431 391.996 306.839C390.664 303.188 392.547 298.35 397.646 292.324C401.702 287.747 406.221 283.749 411.204 280.33C412.885 279.171 414.507 278.244 416.071 277.549C417.694 276.854 419.316 276.506 420.939 276.506C422.097 276.332 423.198 276.506 424.241 277.027C424.589 277.143 424.908 277.288 425.197 277.462C426.298 277.288 427.37 276.969 428.413 276.506C428.819 276.332 429.195 276.187 429.543 276.071C431.745 275.318 433.918 274.999 436.062 275.115C436.931 275.115 437.829 275.115 438.756 275.115C441.943 275.637 443.971 277.085 444.84 279.461C445.767 281.779 445.333 284.618 443.536 287.979C442.609 290.007 441.277 291.919 439.538 293.715C428.529 305.651 417.81 311.88 407.38 312.401H406.772ZM431.89 281.286C427.254 281.112 422.648 282.445 418.07 285.284C413.493 288.065 409.698 291.281 406.685 294.932C403.73 298.582 402.165 301.595 401.991 303.971C401.875 306.288 404.048 306.926 408.51 305.883C413.609 304.492 418.621 301.885 423.546 298.061C428.471 294.236 431.948 290.615 433.976 287.196C436.004 283.72 435.308 281.75 431.89 281.286ZM517.41 259.818C516.367 261.093 515.266 262.31 514.107 263.469C499.1 278.766 483.253 292.991 466.565 306.144C464.131 308.056 461.698 309.765 459.264 311.271C456.947 312.546 454.716 313.444 452.572 313.966C446.43 314.951 443.938 312.662 445.097 307.1C446.14 303.623 447.415 300.175 448.921 296.757C449.443 295.192 449.964 293.657 450.486 292.15C450.486 292.15 450.544 292.15 450.66 292.15C451.065 291.107 451.442 290.093 451.79 289.108C452.717 286.559 453.673 284.009 454.658 281.46C455.179 280.069 455.759 278.65 456.396 277.201C458.192 274.014 460.365 272.363 462.915 272.247C465.696 272.363 466.507 274.333 465.348 278.157C465.001 279.2 464.566 280.156 464.045 281.025C463.639 281.952 463.32 282.793 463.088 283.546C460.771 289.166 458.482 294.845 456.222 300.581C455.817 301.856 456.135 302.609 457.178 302.841C457.526 302.841 457.903 302.754 458.308 302.58C458.714 302.406 459.09 302.174 459.438 301.885C464.189 297.945 468.854 294.005 473.431 290.064C475.343 288.5 477.198 286.965 478.994 285.458C481.022 283.662 483.05 281.952 485.078 280.33C493.132 273.435 501.157 266.598 509.153 259.818C510.08 258.949 511.065 258.196 512.108 257.559C513.209 256.921 514.397 256.603 515.671 256.603C516.714 256.718 517.468 257.095 517.931 257.732C518.105 257.964 518.105 258.283 517.931 258.688C517.815 259.094 517.642 259.471 517.41 259.818Z" fill="#F6F7EE"/>
</g>
<defs>
<filter id="filter0_f" x="-22.808" y="6.14862" width="829.78" height="828.224" filterUnits="userSpaceOnUse" color-interpolation-filters="sRGB">
<feFlood flood-opacity="0" result="BackgroundImageFix"/>
<feBlend mode="normal" in="SourceGraphic" in2="BackgroundImageFix" result="shape"/>
<feGaussianBlur stdDeviation="58.065" result="effect1_foregroundBlur"/>
</filter>
<filter id="filter1_f" x="-312.835" y="-126.248" width="792.102" height="867.673" filterUnits="userSpaceOnUse" color-interpolation-filters="sRGB">
<feFlood flood-opacity="0" result="BackgroundImageFix"/>
<feBlend mode="normal" in="SourceGraphic" in2="BackgroundImageFix" result="shape"/>
<feGaussianBlur stdDeviation="58.065" result="effect1_foregroundBlur"/>
</filter>
<clipPath id="clip0">
<rect width="553" height="553" fill="white"/>
</clipPath>
</defs>
</svg>
