<svg width="400" height="106" viewBox="0 0 400 106" fill="none" xmlns="http://www.w3.org/2000/svg">
<path d="M25.8226 13.3865V98H6.82105V13.3865H25.8226ZM58.1845 99.1368C54.1063 99.1368 50.7499 98.4872 48.1153 97.188C45.5168 95.8887 43.4777 94.1383 41.998 91.9368C40.5544 89.6992 39.5258 87.209 38.9123 84.4662C38.3349 81.6872 38.0461 78.818 38.0461 75.8586C38.0461 74.5594 38.0461 73.206 38.0461 71.7985C38.0461 70.3549 38.0461 68.8752 38.0461 67.3594V40.5083H57.3183V64.1654C57.3183 65.3925 57.3183 66.5654 57.3183 67.6842C57.3183 68.7669 57.3183 69.7774 57.3183 70.7158C57.3183 72.9173 57.5349 74.9564 57.968 76.8331C58.401 78.7098 59.2492 80.2256 60.5123 81.3805C61.8116 82.4992 63.6702 83.0586 66.0883 83.0586C68.5063 83.0586 70.5274 82.391 72.1514 81.0556C73.7755 79.6842 75.0025 77.9519 75.8326 75.8586C76.6988 73.7293 77.1319 71.5098 77.1319 69.2L81.571 73.5308C81.571 77.3203 81.0296 80.785 79.9469 83.9248C78.8642 87.0286 77.3123 89.7173 75.2913 91.991C73.2702 94.2647 70.8161 96.0331 67.9289 97.2962C65.0777 98.5233 61.8296 99.1368 58.1845 99.1368ZM77.1319 98V40.5083H96.404V98H77.1319ZM106.747 98V40.5083H125.857V98H106.747ZM116.275 32.4421C113.388 32.4421 110.844 31.6842 108.642 30.1684C106.477 28.6526 105.394 26.5053 105.394 23.7263C105.394 20.9113 106.477 18.7639 108.642 17.2842C110.844 15.7684 113.388 15.0105 116.275 15.0105C119.198 15.0105 121.743 15.7684 123.908 17.2842C126.074 18.7639 127.156 20.9113 127.156 23.7263C127.156 26.5414 126.074 28.7068 123.908 30.2226C121.743 31.7023 119.198 32.4421 116.275 32.4421ZM154.181 83.2752H184.442V98H133.664V84.1414L163.005 54.4752L163.492 55.1789H134.692V40.5083H183.739V54.3669L154.668 83.9248L154.181 83.2752ZM221.492 99.2992C215.14 99.2992 209.546 98.0361 204.71 95.5098C199.91 92.9474 196.139 89.4105 193.396 84.8992C190.689 80.388 189.336 75.191 189.336 69.3083C189.336 63.3895 190.689 58.1925 193.396 53.7173C196.139 49.206 199.91 45.6872 204.71 43.1609C209.546 40.6346 215.14 39.3714 221.492 39.3714C227.844 39.3714 233.42 40.6346 238.22 43.1609C243.056 45.6872 246.828 49.206 249.534 53.7173C252.277 58.1925 253.649 63.3895 253.649 69.3083C253.649 75.191 252.277 80.388 249.534 84.8992C246.828 89.4105 243.056 92.9474 238.22 95.5098C233.42 98.0361 227.844 99.2992 221.492 99.2992ZM221.492 84.412C224.091 84.412 226.328 83.7805 228.205 82.5173C230.082 81.2541 231.525 79.5038 232.536 77.2662C233.546 74.9925 234.052 72.3398 234.052 69.3083C234.052 66.2406 233.546 63.588 232.536 61.3504C231.525 59.1128 230.082 57.3804 228.205 56.1534C226.328 54.9263 224.091 54.3128 221.492 54.3128C218.93 54.3128 216.692 54.9263 214.779 56.1534C212.903 57.3804 211.459 59.1128 210.449 61.3504C209.438 63.588 208.933 66.2406 208.933 69.3083C208.933 72.3398 209.438 74.9925 210.449 77.2662C211.459 79.5038 212.903 81.2541 214.779 82.5173C216.692 83.7805 218.93 84.412 221.492 84.412ZM316.144 40.5083L299.308 98H273.161L256 40.5083H275.922L287.778 92.8571H284.746L296.169 40.5083H316.144Z" fill="black"/>
</svg>
