<svg width="553" height="553" viewBox="0 0 553 553" fill="none" xmlns="http://www.w3.org/2000/svg">
<g clip-path="url(#clip0_780_962)">
<path d="M539.175 -0.000183105H13.825C6.18966 -0.000183105 0 6.18948 0 13.8248V539.175C0 546.81 6.18966 553 13.825 553H539.175C546.81 553 553 546.81 553 539.175V13.8248C553 6.18948 546.81 -0.000183105 539.175 -0.000183105Z" fill="#3D91FF"/>
<g filter="url(#filter0_f_780_962)">
<path d="M93.3219 390.857L99.9616 566.099L202.584 718.242L690.841 388.908L510.997 122.279L382.012 136.96L284.183 393.623L93.3219 390.857Z" fill="#C27DF2"/>
</g>
<g style="mix-blend-mode:overlay" filter="url(#filter1_f_780_962)">
<path d="M363.135 192.88L194.72 -10.1182L-132.06 73.2063L-196.706 599.315L294.967 625.294L281.33 437.213L103.557 526.724L-102.194 310.343L363.136 192.871L363.135 192.88Z" fill="#F8F8F2"/>
</g>
<g filter="url(#filter2_d_780_962)">
<path d="M220.544 283.71C221.137 283.71 221.612 283.947 221.968 284.422C222.324 284.778 222.443 285.253 222.324 285.846L220.01 303.824C220.01 304.417 219.773 304.951 219.298 305.426C218.823 305.782 218.289 305.96 217.696 305.96H210.398C209.923 305.96 209.567 306.257 209.33 306.85L205.77 335.864C205.651 336.457 205.355 336.991 204.88 337.466C204.524 337.822 204.049 338 203.456 338H183.342C182.037 338 181.384 337.288 181.384 335.864L184.944 306.85C185.181 306.257 184.944 305.96 184.232 305.96H131.188C130.595 305.96 130.12 305.782 129.764 305.426C129.408 304.951 129.289 304.417 129.408 303.824L131.188 289.584C131.425 288.635 131.722 287.745 132.078 286.914L171.95 215.002C172.543 213.934 173.433 213.4 174.62 213.4H196.158C196.989 213.4 197.523 213.637 197.76 214.112C197.997 214.468 197.879 215.061 197.404 215.892L160.38 282.642C160.143 283.354 160.261 283.71 160.736 283.71H186.902C187.614 283.71 187.97 283.413 187.97 282.82L190.64 260.748C190.759 260.155 190.996 259.68 191.352 259.324C191.827 258.849 192.361 258.612 192.954 258.612H213.246C213.839 258.612 214.314 258.849 214.67 259.324C215.026 259.68 215.145 260.155 215.026 260.748L212.356 282.82C212.119 283.413 212.356 283.71 213.068 283.71H220.544ZM272.861 339.958C261.35 339.958 252.391 336.932 245.983 330.88C239.575 324.828 236.371 316.462 236.371 305.782C236.371 302.934 236.489 300.739 236.727 299.196L242.423 252.204C243.965 239.863 248.831 230.073 257.019 222.834C265.325 215.595 275.827 211.976 288.525 211.976C300.035 211.976 308.995 215.002 315.403 221.054C321.929 226.987 325.193 235.175 325.193 245.618C325.193 248.466 325.074 250.661 324.837 252.204L319.141 299.196C317.598 311.775 312.673 321.743 304.367 329.1C296.06 336.339 285.558 339.958 272.861 339.958ZM275.531 318.42C280.633 318.42 284.905 316.818 288.347 313.614C291.788 310.41 293.865 306.019 294.577 300.442L300.629 251.492C300.747 250.78 300.807 249.831 300.807 248.644C300.807 243.897 299.501 240.219 296.891 237.608C294.28 234.879 290.601 233.514 285.855 233.514C280.752 233.514 276.48 235.175 273.039 238.498C269.597 241.702 267.58 246.033 266.987 251.492L260.935 300.442C260.816 301.154 260.757 302.222 260.757 303.646C260.757 308.274 262.062 311.893 264.673 314.504C267.283 317.115 270.903 318.42 275.531 318.42ZM423.401 283.71C423.995 283.71 424.469 283.947 424.825 284.422C425.181 284.778 425.3 285.253 425.181 285.846L422.867 303.824C422.867 304.417 422.63 304.951 422.155 305.426C421.681 305.782 421.147 305.96 420.553 305.96H413.255C412.781 305.96 412.425 306.257 412.187 306.85L408.627 335.864C408.509 336.457 408.212 336.991 407.737 337.466C407.381 337.822 406.907 338 406.313 338H386.199C384.894 338 384.241 337.288 384.241 335.864L387.801 306.85C388.039 306.257 387.801 305.96 387.089 305.96H334.045C333.452 305.96 332.977 305.782 332.621 305.426C332.265 304.951 332.147 304.417 332.265 303.824L334.045 289.584C334.283 288.635 334.579 287.745 334.935 286.914L374.807 215.002C375.401 213.934 376.291 213.4 377.477 213.4H399.015C399.846 213.4 400.38 213.637 400.617 214.112C400.855 214.468 400.736 215.061 400.261 215.892L363.237 282.642C363 283.354 363.119 283.71 363.593 283.71H389.759C390.471 283.71 390.827 283.413 390.827 282.82L393.497 260.748C393.616 260.155 393.853 259.68 394.209 259.324C394.684 258.849 395.218 258.612 395.811 258.612H416.103C416.697 258.612 417.171 258.849 417.527 259.324C417.883 259.68 418.002 260.155 417.883 260.748L415.213 282.82C414.976 283.413 415.213 283.71 415.925 283.71H423.401Z" fill="white"/>
</g>
</g>
<defs>
<filter id="filter0_f_780_962" x="-22.8082" y="6.14862" width="829.78" height="828.224" filterUnits="userSpaceOnUse" color-interpolation-filters="sRGB">
<feFlood flood-opacity="0" result="BackgroundImageFix"/>
<feBlend mode="normal" in="SourceGraphic" in2="BackgroundImageFix" result="shape"/>
<feGaussianBlur stdDeviation="58.065" result="effect1_foregroundBlur_780_962"/>
</filter>
<filter id="filter1_f_780_962" x="-312.836" y="-126.248" width="792.102" height="867.673" filterUnits="userSpaceOnUse" color-interpolation-filters="sRGB">
<feFlood flood-opacity="0" result="BackgroundImageFix"/>
<feBlend mode="normal" in="SourceGraphic" in2="BackgroundImageFix" result="shape"/>
<feGaussianBlur stdDeviation="58.065" result="effect1_foregroundBlur_780_962"/>
</filter>
<filter id="filter2_d_780_962" x="129.23" y="211.976" width="296.129" height="131.982" filterUnits="userSpaceOnUse" color-interpolation-filters="sRGB">
<feFlood flood-opacity="0" result="BackgroundImageFix"/>
<feColorMatrix in="SourceAlpha" type="matrix" values="0 0 0 0 0 0 0 0 0 0 0 0 0 0 0 0 0 0 127 0" result="hardAlpha"/>
<feOffset dy="4"/>
<feComposite in2="hardAlpha" operator="out"/>
<feColorMatrix type="matrix" values="0 0 0 0 0 0 0 0 0 0 0 0 0 0 0 0 0 0 0.16 0"/>
<feBlend mode="normal" in2="BackgroundImageFix" result="effect1_dropShadow_780_962"/>
<feBlend mode="normal" in="SourceGraphic" in2="effect1_dropShadow_780_962" result="shape"/>
</filter>
<clipPath id="clip0_780_962">
<rect width="553" height="553" fill="white"/>
</clipPath>
</defs>
</svg>
