<svg width="553" height="553" viewBox="0 0 553 553" fill="none" xmlns="http://www.w3.org/2000/svg">
<g clip-path="url(#clip0)">
<path d="M539.175 -0.000183105H13.825C6.18966 -0.000183105 0 6.18948 0 13.8248V539.175C0 546.81 6.18966 553 13.825 553H539.175C546.81 553 553 546.81 553 539.175V13.8248C553 6.18948 546.81 -0.000183105 539.175 -0.000183105Z" fill="#3D91FF"/>
<g filter="url(#filter0_f)">
<path d="M93.3219 390.857L99.9616 566.099L202.584 718.242L690.841 388.908L510.997 122.279L382.012 136.96L284.183 393.623L93.3219 390.857Z" fill="#C27DF2"/>
</g>
<g style="mix-blend-mode:overlay" filter="url(#filter1_f)">
<path d="M363.135 192.88L194.72 -10.1182L-132.06 73.2063L-196.706 599.315L294.967 625.294L281.33 437.213L103.557 526.724L-102.194 310.343L363.136 192.871L363.135 192.88Z" fill="#F8F8F2"/>
</g>
<g filter="url(#filter2_d)">
<path d="M179.75 219.4H210.544L192.032 306.62H208.23V320.504H189.006L184.022 344H169.07L174.054 320.504H116.382V297.008L179.75 219.4ZM127.774 304.484V306.62H177.08L194.168 225.808H192.032L127.774 304.484ZM264.71 281.7C264.71 278.615 265.838 275.945 268.092 273.69C270.347 271.435 273.017 270.308 276.102 270.308C279.188 270.308 281.858 271.435 284.112 273.69C286.367 275.945 287.494 278.615 287.494 281.7C287.494 284.785 286.367 287.455 284.112 289.71C281.858 291.965 279.188 293.092 276.102 293.092C273.017 293.092 270.347 291.965 268.092 289.71C265.838 287.455 264.71 284.785 264.71 281.7ZM235.34 267.816C238.782 251.203 244.834 238.565 253.496 229.902C262.278 221.239 274.026 216.908 288.74 216.908C300.251 216.908 309.032 220.231 315.084 226.876C321.255 233.403 324.34 242.481 324.34 254.11C324.34 256.483 324.162 259.035 323.806 261.764C323.569 264.375 323.154 267.045 322.56 269.774L317.042 295.584C313.601 312.197 307.49 324.835 298.708 333.498C290.046 342.161 278.357 346.492 263.642 346.492C252.132 346.492 243.291 343.229 237.12 336.702C231.068 330.057 228.042 320.919 228.042 309.29C228.042 306.917 228.161 304.425 228.398 301.814C228.754 299.085 229.229 296.355 229.822 293.626L235.34 267.816ZM265.778 332.964C270.644 332.964 275.034 332.074 278.95 330.294C282.985 328.395 286.486 325.785 289.452 322.462C292.538 319.021 295.089 314.986 297.106 310.358C299.242 305.611 300.963 300.331 302.268 294.516L307.964 267.816C308.914 263.069 309.388 258.916 309.388 255.356C309.388 247.643 307.49 241.591 303.692 237.2C299.895 232.691 294.199 230.436 286.604 230.436C276.755 230.436 268.804 233.937 262.752 240.938C256.819 247.939 252.606 257.255 250.114 268.884L244.418 295.584C243.469 300.331 242.994 304.484 242.994 308.044C242.994 315.757 244.893 321.869 248.69 326.378C252.488 330.769 258.184 332.964 265.778 332.964ZM397.73 219.4H428.524L410.012 306.62H426.21V320.504H406.986L402.002 344H387.05L392.034 320.504H334.362V297.008L397.73 219.4ZM345.754 304.484V306.62H395.06L412.148 225.808H410.012L345.754 304.484Z" fill="white"/>
</g>
</g>
<defs>
<filter id="filter0_f" x="-126.917" y="-43.5574" width="933.889" height="877.93" filterUnits="userSpaceOnUse" color-interpolation-filters="sRGB">
<feFlood flood-opacity="0" result="BackgroundImageFix"/>
<feBlend mode="normal" in="SourceGraphic" in2="BackgroundImageFix" result="shape"/>
<feGaussianBlur stdDeviation="58.065" result="effect1_foregroundBlur"/>
</filter>
<filter id="filter1_f" x="-312.836" y="-160.28" width="811.364" height="929.484" filterUnits="userSpaceOnUse" color-interpolation-filters="sRGB">
<feFlood flood-opacity="0" result="BackgroundImageFix"/>
<feBlend mode="normal" in="SourceGraphic" in2="BackgroundImageFix" result="shape"/>
<feGaussianBlur stdDeviation="58.065" result="effect1_foregroundBlur"/>
</filter>
<filter id="filter2_d" x="116.382" y="216.908" width="312.142" height="131.584" filterUnits="userSpaceOnUse" color-interpolation-filters="sRGB">
<feFlood flood-opacity="0" result="BackgroundImageFix"/>
<feColorMatrix in="SourceAlpha" type="matrix" values="0 0 0 0 0 0 0 0 0 0 0 0 0 0 0 0 0 0 127 0" result="hardAlpha"/>
<feOffset dy="2"/>
<feComposite in2="hardAlpha" operator="out"/>
<feColorMatrix type="matrix" values="0 0 0 0 0 0 0 0 0 0 0 0 0 0 0 0 0 0 0.16 0"/>
<feBlend mode="normal" in2="BackgroundImageFix" result="effect1_dropShadow"/>
<feBlend mode="normal" in="SourceGraphic" in2="effect1_dropShadow" result="shape"/>
</filter>
<clipPath id="clip0">
<rect width="553" height="553" fill="white"/>
</clipPath>
</defs>
</svg>
