<svg width="553" height="553" viewBox="0 0 553 553" fill="none" xmlns="http://www.w3.org/2000/svg">
<g clip-path="url(#clip0_780_962)">
<path d="M539.175 -0.000183105H13.825C6.18966 -0.000183105 0 6.18948 0 13.8248V539.175C0 546.81 6.18966 553 13.825 553H539.175C546.81 553 553 546.81 553 539.175V13.8248C553 6.18948 546.81 -0.000183105 539.175 -0.000183105Z" fill="#3D91FF"/>
<g filter="url(#filter0_f_780_962)">
<path d="M93.3219 390.857L99.9616 566.099L202.584 718.242L690.841 388.908L510.997 122.279L382.012 136.96L284.183 393.623L93.3219 390.857Z" fill="#C27DF2"/>
</g>
<g style="mix-blend-mode:overlay" filter="url(#filter1_f_780_962)">
<path d="M363.135 192.88L194.72 -10.1182L-132.06 73.2063L-196.706 599.315L294.967 625.294L281.33 437.213L103.557 526.724L-102.194 310.343L363.136 192.871L363.135 192.88Z" fill="#F8F8F2"/>
</g>
<g filter="url(#filter2_d_780_962)">
<path d="M164.416 331L169.756 305.813H114.22L118.225 286.678L183.551 199.547H219.24L201.084 284.987H216.837L212.387 305.813H196.723L191.294 331H164.416ZM138.161 296.824L131.931 284.987H174.117L188.535 217.169L195.21 218.682L138.161 296.824ZM266.137 333.136C257.653 333.136 250.8 331.267 245.578 327.529C240.416 323.732 236.649 318.629 234.275 312.221C231.902 305.813 230.715 298.604 230.715 290.594C230.715 281.575 231.635 272.616 233.474 263.716C235.314 254.757 237.984 246.331 241.484 238.44C244.985 230.489 249.257 223.488 254.3 217.436C259.403 211.325 265.158 206.519 271.566 203.018C278.034 199.517 285.124 197.767 292.837 197.767C301.322 197.767 308.145 199.695 313.307 203.552C318.469 207.349 322.207 212.511 324.521 219.038C326.895 225.505 328.081 232.774 328.081 240.843C328.081 249.862 327.162 258.821 325.322 267.721C323.483 276.562 320.813 284.928 317.312 292.819C313.812 300.651 309.54 307.593 304.496 313.645C299.453 319.697 293.698 324.473 287.23 327.974C280.822 331.415 273.791 333.136 266.137 333.136ZM269.519 311.687C273.376 311.687 276.936 309.966 280.199 306.525C283.463 303.084 286.4 298.545 289.01 292.908C291.621 287.271 293.846 281.13 295.685 274.485C297.525 267.78 298.919 261.165 299.868 254.638C300.877 248.111 301.381 242.297 301.381 237.194C301.381 230.905 300.284 226.395 298.088 223.666C295.952 220.937 292.986 219.572 289.188 219.572C285.391 219.572 281.861 221.322 278.597 224.823C275.334 228.324 272.397 232.922 269.786 238.618C267.176 244.255 264.921 250.425 263.022 257.13C261.183 263.775 259.759 270.361 258.75 276.888C257.801 283.415 257.326 289.229 257.326 294.332C257.326 300.503 258.394 304.953 260.53 307.682C262.726 310.352 265.722 311.687 269.519 311.687ZM378.398 331L383.738 305.813H328.202L332.207 286.678L397.533 199.547H433.222L415.066 284.987H430.819L426.369 305.813H410.705L405.276 331H378.398ZM352.143 296.824L345.913 284.987H388.099L402.517 217.169L409.192 218.682L352.143 296.824Z" fill="white"/>
</g>
</g>
<defs>
<filter id="filter0_f_780_962" x="-22.8082" y="6.14862" width="829.78" height="828.224" filterUnits="userSpaceOnUse" color-interpolation-filters="sRGB">
<feFlood flood-opacity="0" result="BackgroundImageFix"/>
<feBlend mode="normal" in="SourceGraphic" in2="BackgroundImageFix" result="shape"/>
<feGaussianBlur stdDeviation="58.065" result="effect1_foregroundBlur_780_962"/>
</filter>
<filter id="filter1_f_780_962" x="-312.836" y="-126.248" width="792.102" height="867.673" filterUnits="userSpaceOnUse" color-interpolation-filters="sRGB">
<feFlood flood-opacity="0" result="BackgroundImageFix"/>
<feBlend mode="normal" in="SourceGraphic" in2="BackgroundImageFix" result="shape"/>
<feGaussianBlur stdDeviation="58.065" result="effect1_foregroundBlur_780_962"/>
</filter>
<filter id="filter2_d_780_962" x="114.22" y="197.767" width="319.002" height="139.369" filterUnits="userSpaceOnUse" color-interpolation-filters="sRGB">
<feFlood flood-opacity="0" result="BackgroundImageFix"/>
<feColorMatrix in="SourceAlpha" type="matrix" values="0 0 0 0 0 0 0 0 0 0 0 0 0 0 0 0 0 0 127 0" result="hardAlpha"/>
<feOffset dy="4"/>
<feComposite in2="hardAlpha" operator="out"/>
<feColorMatrix type="matrix" values="0 0 0 0 0 0 0 0 0 0 0 0 0 0 0 0 0 0 0.16 0"/>
<feBlend mode="normal" in2="BackgroundImageFix" result="effect1_dropShadow_780_962"/>
<feBlend mode="normal" in="SourceGraphic" in2="effect1_dropShadow_780_962" result="shape"/>
</filter>
<clipPath id="clip0_780_962">
<rect width="553" height="553" fill="white"/>
</clipPath>
</defs>
</svg>
