<svg width="553" height="553" viewBox="0 0 553 553" fill="none" xmlns="http://www.w3.org/2000/svg">
<g clip-path="url(#clip0_780_970)">
<path d="M539.175 -0.000244141H13.825C6.18966 -0.000244141 0 6.18942 0 13.8248V539.175C0 546.81 6.18966 553 13.825 553H539.175C546.81 553 553 546.81 553 539.175V13.8248C553 6.18942 546.81 -0.000244141 539.175 -0.000244141Z" fill="#3D91FF"/>
<g filter="url(#filter0_f_780_970)">
<path d="M93.3219 390.857L99.9616 566.099L202.584 718.242L690.841 388.908L510.997 122.279L382.012 136.96L284.183 393.623L93.3219 390.857Z" fill="#C27DF2"/>
</g>
<g style="mix-blend-mode:overlay" filter="url(#filter1_f_780_970)">
<path d="M363.135 192.88L194.72 -10.1183L-132.06 73.2062L-196.706 599.315L294.967 625.294L281.33 437.213L103.557 526.724L-102.194 310.343L363.136 192.871L363.135 192.88Z" fill="#F8F8F2"/>
</g>
<g filter="url(#filter2_d_780_970)">
<path d="M220.288 291.218C220.881 294.185 221.178 297.626 221.178 301.542C221.178 304.509 221.059 306.704 220.822 308.128C220.11 314.061 218.508 319.52 216.016 324.504C212.575 331.98 207.175 337.973 199.818 342.482C192.579 346.991 184.51 349.246 175.61 349.246C166.829 349.246 159.412 347.11 153.36 342.838C147.308 338.447 143.333 332.514 141.434 325.038C140.722 322.427 140.247 319.164 140.01 315.248C140.01 313.705 140.781 312.934 142.324 312.934H163.328C164.396 312.934 165.049 313.587 165.286 314.892C165.523 316.079 165.761 317.087 165.998 317.918C166.71 321.003 168.134 323.377 170.27 325.038C172.406 326.699 175.017 327.53 178.102 327.53C181.306 327.53 184.213 326.64 186.824 324.86C189.435 323.08 191.511 320.588 193.054 317.384C194.478 315.129 195.427 312.044 195.902 308.128C196.021 307.297 196.08 306.051 196.08 304.39C196.08 302.61 195.902 300.771 195.546 298.872C195.071 295.787 193.766 293.413 191.63 291.752C189.494 290.091 186.765 289.26 183.442 289.26C180.119 289.26 176.975 290.031 174.008 291.574C171.041 293.117 169.024 295.134 167.956 297.626C167.363 298.813 166.532 299.406 165.464 299.406H144.104C143.511 299.406 143.036 299.228 142.68 298.872C142.324 298.397 142.205 297.863 142.324 297.27L151.224 225.536C151.343 224.943 151.58 224.468 151.936 224.112C152.411 223.637 152.945 223.4 153.538 223.4H224.738C225.331 223.4 225.806 223.637 226.162 224.112C226.637 224.468 226.815 224.943 226.696 225.536L224.56 242.802C224.441 243.395 224.145 243.929 223.67 244.404C223.314 244.76 222.839 244.938 222.246 244.938H174.008C173.415 244.938 173.118 245.235 173.118 245.828L169.558 272.172C169.558 273.003 169.914 273.181 170.626 272.706C176.085 269.265 182.255 267.544 189.138 267.544C197.089 267.544 203.853 269.68 209.43 273.952C215.007 278.105 218.627 283.861 220.288 291.218ZM270.388 349.958C258.877 349.958 249.918 346.932 243.51 340.88C237.102 334.828 233.898 326.462 233.898 315.782C233.898 312.934 234.017 310.739 234.254 309.196L239.95 262.204C241.493 249.863 246.358 240.073 254.546 232.834C262.853 225.595 273.355 221.976 286.052 221.976C297.563 221.976 306.522 225.002 312.93 231.054C319.457 236.987 322.72 245.175 322.72 255.618C322.72 258.466 322.601 260.661 322.364 262.204L316.668 309.196C315.125 321.775 310.201 331.743 301.894 339.1C293.587 346.339 283.085 349.958 270.388 349.958ZM273.058 328.42C278.161 328.42 282.433 326.818 285.874 323.614C289.315 320.41 291.392 316.019 292.104 310.442L298.156 261.492C298.275 260.78 298.334 259.831 298.334 258.644C298.334 253.897 297.029 250.219 294.418 247.608C291.807 244.879 288.129 243.514 283.382 243.514C278.279 243.514 274.007 245.175 270.566 248.498C267.125 251.702 265.107 256.033 264.514 261.492L258.462 310.442C258.343 311.154 258.284 312.222 258.284 313.646C258.284 318.274 259.589 321.893 262.2 324.504C264.811 327.115 268.43 328.42 273.058 328.42ZM368.775 349.958C357.264 349.958 348.305 346.932 341.897 340.88C335.489 334.828 332.285 326.462 332.285 315.782C332.285 312.934 332.403 310.739 332.641 309.196L338.337 262.204C339.879 249.863 344.745 240.073 352.933 232.834C361.239 225.595 371.741 221.976 384.439 221.976C395.949 221.976 404.909 225.002 411.317 231.054C417.843 236.987 421.107 245.175 421.107 255.618C421.107 258.466 420.988 260.661 420.751 262.204L415.055 309.196C413.512 321.775 408.587 331.743 400.281 339.1C391.974 346.339 381.472 349.958 368.775 349.958ZM371.445 328.42C376.547 328.42 380.819 326.818 384.261 323.614C387.702 320.41 389.779 316.019 390.491 310.442L396.543 261.492C396.661 260.78 396.721 259.831 396.721 258.644C396.721 253.897 395.415 250.219 392.805 247.608C390.194 244.879 386.515 243.514 381.769 243.514C376.666 243.514 372.394 245.175 368.953 248.498C365.511 251.702 363.494 256.033 362.901 261.492L356.849 310.442C356.73 311.154 356.671 312.222 356.671 313.646C356.671 318.274 357.976 321.893 360.587 324.504C363.197 327.115 366.817 328.42 371.445 328.42Z" fill="white"/>
</g>
</g>
<defs>
<filter id="filter0_f_780_970" x="-22.8082" y="6.14868" width="829.78" height="828.224" filterUnits="userSpaceOnUse" color-interpolation-filters="sRGB">
<feFlood flood-opacity="0" result="BackgroundImageFix"/>
<feBlend mode="normal" in="SourceGraphic" in2="BackgroundImageFix" result="shape"/>
<feGaussianBlur stdDeviation="58.065" result="effect1_foregroundBlur_780_970"/>
</filter>
<filter id="filter1_f_780_970" x="-312.836" y="-126.248" width="792.102" height="867.673" filterUnits="userSpaceOnUse" color-interpolation-filters="sRGB">
<feFlood flood-opacity="0" result="BackgroundImageFix"/>
<feBlend mode="normal" in="SourceGraphic" in2="BackgroundImageFix" result="shape"/>
<feGaussianBlur stdDeviation="58.065" result="effect1_foregroundBlur_780_970"/>
</filter>
<filter id="filter2_d_780_970" x="140.01" y="221.976" width="281.097" height="131.982" filterUnits="userSpaceOnUse" color-interpolation-filters="sRGB">
<feFlood flood-opacity="0" result="BackgroundImageFix"/>
<feColorMatrix in="SourceAlpha" type="matrix" values="0 0 0 0 0 0 0 0 0 0 0 0 0 0 0 0 0 0 127 0" result="hardAlpha"/>
<feOffset dy="4"/>
<feComposite in2="hardAlpha" operator="out"/>
<feColorMatrix type="matrix" values="0 0 0 0 0 0 0 0 0 0 0 0 0 0 0 0 0 0 0.16 0"/>
<feBlend mode="normal" in2="BackgroundImageFix" result="effect1_dropShadow_780_970"/>
<feBlend mode="normal" in="SourceGraphic" in2="effect1_dropShadow_780_970" result="shape"/>
</filter>
<clipPath id="clip0_780_970">
<rect width="553" height="553" fill="white"/>
</clipPath>
</defs>
</svg>
