<svg width="553" height="553" viewBox="0 0 553 553" fill="none" xmlns="http://www.w3.org/2000/svg">
<g clip-path="url(#clip0_780_970)">
<path d="M539.175 -0.000244141H13.825C6.18966 -0.000244141 0 6.18942 0 13.8248V539.175C0 546.81 6.18966 553 13.825 553H539.175C546.81 553 553 546.81 553 539.175V13.8248C553 6.18942 546.81 -0.000244141 539.175 -0.000244141Z" fill="#3D91FF"/>
<g filter="url(#filter0_f_780_970)">
<path d="M93.3219 390.857L99.9616 566.099L202.584 718.242L690.841 388.908L510.997 122.279L382.012 136.96L284.183 393.623L93.3219 390.857Z" fill="#C27DF2"/>
</g>
<g style="mix-blend-mode:overlay" filter="url(#filter1_f_780_970)">
<path d="M363.135 192.88L194.72 -10.1183L-132.06 73.2062L-196.706 599.315L294.967 625.294L281.33 437.213L103.557 526.724L-102.194 310.343L363.136 192.871L363.135 192.88Z" fill="#F8F8F2"/>
</g>
<g filter="url(#filter2_d_780_970)">
<path d="M221.999 220.551H168.866L157.474 254.816C157.771 254.223 158.542 253.422 159.788 252.413C161.093 251.404 162.814 250.396 164.95 249.387C167.145 248.319 169.726 247.459 172.693 246.806C175.719 246.094 179.131 245.738 182.928 245.738C192.837 245.738 200.194 248.438 205 253.837C209.865 259.236 212.298 266.505 212.298 275.642C212.298 284.127 211.052 291.899 208.56 298.96C206.068 305.961 202.449 312.013 197.702 317.116C192.955 322.219 187.2 326.164 180.436 328.953C173.672 331.742 166.018 333.136 157.474 333.136C148.396 333.136 141.098 331.623 135.58 328.597C130.121 325.512 126.176 321.536 123.743 316.671C121.37 311.746 120.183 306.466 120.183 300.829C120.183 298.871 120.302 296.943 120.539 295.044C120.776 293.086 120.984 291.84 121.162 291.306H148.485C148.366 291.959 148.248 292.938 148.129 294.243C148.01 295.548 147.951 296.794 147.951 297.981C147.951 302.372 148.989 305.754 151.066 308.127C153.143 310.5 156.584 311.687 161.39 311.687C165.247 311.687 168.599 310.767 171.447 308.928C174.354 307.089 176.728 304.626 178.567 301.541C180.466 298.456 181.89 294.985 182.839 291.128C183.788 287.212 184.263 283.177 184.263 279.024C184.263 274.693 183.314 271.37 181.415 269.056C179.516 266.683 176.461 265.496 172.248 265.496C168.985 265.496 165.988 266.119 163.259 267.365C160.589 268.611 158.275 270.154 156.317 271.993C154.359 273.832 152.876 275.642 151.867 277.422L127.659 270.569L150.532 199.725H226.449L221.999 220.551ZM267.354 333.136C258.87 333.136 252.017 331.267 246.795 327.529C241.633 323.732 237.866 318.629 235.492 312.221C233.119 305.813 231.932 298.604 231.932 290.594C231.932 281.575 232.852 272.616 234.691 263.716C236.531 254.757 239.201 246.331 242.701 238.44C246.202 230.489 250.474 223.488 255.517 217.436C260.62 211.325 266.375 206.519 272.783 203.018C279.251 199.517 286.341 197.767 294.054 197.767C302.539 197.767 309.362 199.695 314.524 203.552C319.686 207.349 323.424 212.511 325.738 219.038C328.112 225.505 329.298 232.774 329.298 240.843C329.298 249.862 328.379 258.821 326.539 267.721C324.7 276.562 322.03 284.928 318.529 292.819C315.029 300.651 310.757 307.593 305.713 313.645C300.67 319.697 294.915 324.473 288.447 327.974C282.039 331.415 275.008 333.136 267.354 333.136ZM270.736 311.687C274.593 311.687 278.153 309.966 281.416 306.525C284.68 303.084 287.617 298.545 290.227 292.908C292.838 287.271 295.063 281.13 296.902 274.485C298.742 267.78 300.136 261.165 301.085 254.638C302.094 248.111 302.598 242.297 302.598 237.194C302.598 230.905 301.501 226.395 299.305 223.666C297.169 220.937 294.203 219.572 290.405 219.572C286.608 219.572 283.078 221.322 279.814 224.823C276.551 228.324 273.614 232.922 271.003 238.618C268.393 244.255 266.138 250.425 264.239 257.13C262.4 263.775 260.976 270.361 259.967 276.888C259.018 283.415 258.543 289.229 258.543 294.332C258.543 300.503 259.611 304.953 261.747 307.682C263.943 310.352 266.939 311.687 270.736 311.687ZM373.563 333.136C365.079 333.136 358.226 331.267 353.004 327.529C347.842 323.732 344.075 318.629 341.701 312.221C339.328 305.813 338.141 298.604 338.141 290.594C338.141 281.575 339.061 272.616 340.9 263.716C342.74 254.757 345.41 246.331 348.91 238.44C352.411 230.489 356.683 223.488 361.726 217.436C366.829 211.325 372.584 206.519 378.992 203.018C385.46 199.517 392.55 197.767 400.263 197.767C408.748 197.767 415.571 199.695 420.733 203.552C425.895 207.349 429.633 212.511 431.947 219.038C434.321 225.505 435.507 232.774 435.507 240.843C435.507 249.862 434.588 258.821 432.748 267.721C430.909 276.562 428.239 284.928 424.738 292.819C421.238 300.651 416.966 307.593 411.922 313.645C406.879 319.697 401.124 324.473 394.656 327.974C388.248 331.415 381.217 333.136 373.563 333.136ZM376.945 311.687C380.802 311.687 384.362 309.966 387.625 306.525C390.889 303.084 393.826 298.545 396.436 292.908C399.047 287.271 401.272 281.13 403.111 274.485C404.951 267.78 406.345 261.165 407.294 254.638C408.303 248.111 408.807 242.297 408.807 237.194C408.807 230.905 407.71 226.395 405.514 223.666C403.378 220.937 400.412 219.572 396.614 219.572C392.817 219.572 389.287 221.322 386.023 224.823C382.76 228.324 379.823 232.922 377.212 238.618C374.602 244.255 372.347 250.425 370.448 257.13C368.609 263.775 367.185 270.361 366.176 276.888C365.227 283.415 364.752 289.229 364.752 294.332C364.752 300.503 365.82 304.953 367.956 307.682C370.152 310.352 373.148 311.687 376.945 311.687Z" fill="white"/>
</g>
</g>
<defs>
<filter id="filter0_f_780_970" x="-22.8082" y="6.14868" width="829.78" height="828.224" filterUnits="userSpaceOnUse" color-interpolation-filters="sRGB">
<feFlood flood-opacity="0" result="BackgroundImageFix"/>
<feBlend mode="normal" in="SourceGraphic" in2="BackgroundImageFix" result="shape"/>
<feGaussianBlur stdDeviation="58.065" result="effect1_foregroundBlur_780_970"/>
</filter>
<filter id="filter1_f_780_970" x="-312.836" y="-126.248" width="792.102" height="867.673" filterUnits="userSpaceOnUse" color-interpolation-filters="sRGB">
<feFlood flood-opacity="0" result="BackgroundImageFix"/>
<feBlend mode="normal" in="SourceGraphic" in2="BackgroundImageFix" result="shape"/>
<feGaussianBlur stdDeviation="58.065" result="effect1_foregroundBlur_780_970"/>
</filter>
<filter id="filter2_d_780_970" x="120.183" y="197.767" width="315.324" height="139.369" filterUnits="userSpaceOnUse" color-interpolation-filters="sRGB">
<feFlood flood-opacity="0" result="BackgroundImageFix"/>
<feColorMatrix in="SourceAlpha" type="matrix" values="0 0 0 0 0 0 0 0 0 0 0 0 0 0 0 0 0 0 127 0" result="hardAlpha"/>
<feOffset dy="4"/>
<feComposite in2="hardAlpha" operator="out"/>
<feColorMatrix type="matrix" values="0 0 0 0 0 0 0 0 0 0 0 0 0 0 0 0 0 0 0.16 0"/>
<feBlend mode="normal" in2="BackgroundImageFix" result="effect1_dropShadow_780_970"/>
<feBlend mode="normal" in="SourceGraphic" in2="effect1_dropShadow_780_970" result="shape"/>
</filter>
<clipPath id="clip0_780_970">
<rect width="553" height="553" fill="white"/>
</clipPath>
</defs>
</svg>
