<svg width="553" height="553" viewBox="0 0 553 553" fill="none" xmlns="http://www.w3.org/2000/svg">
<g clip-path="url(#clip0)">
<path d="M539.175 -0.000213623H13.825C6.18966 -0.000213623 0 6.18945 0 13.8248V539.175C0 546.81 6.18966 553 13.825 553H539.175C546.81 553 553 546.81 553 539.175V13.8248C553 6.18945 546.81 -0.000213623 539.175 -0.000213623Z" fill="#3D91FF"/>
<g filter="url(#filter0_f)">
<path d="M93.3219 390.857L99.9616 566.099L202.584 718.242L690.841 388.908L510.997 122.279L382.012 136.96L284.183 393.623L93.3219 390.857Z" fill="#C27DF2"/>
</g>
<g style="mix-blend-mode:overlay" filter="url(#filter1_f)">
<path d="M363.135 192.88L194.72 -10.1182L-132.06 73.2063L-196.706 599.315L294.967 625.294L281.33 437.213L103.557 526.724L-102.194 310.343L363.136 192.871L363.135 192.88Z" fill="#F8F8F2"/>
</g>
<g filter="url(#filter2_d)">
<path d="M125.994 285.26L139.878 219.4H214.994V233.284H151.626L142.192 277.784H144.328C145.752 275.411 147.473 273.156 149.49 271.02C151.507 268.765 153.821 266.807 156.432 265.146C159.161 263.485 162.247 262.179 165.688 261.23C169.248 260.162 173.283 259.628 177.792 259.628C182.42 259.628 186.692 260.399 190.608 261.942C194.643 263.485 198.143 265.68 201.11 268.528C204.077 271.257 206.391 274.521 208.052 278.318C209.713 282.115 210.544 286.209 210.544 290.6C210.544 298.551 209.239 305.967 206.628 312.85C204.136 319.614 200.517 325.488 195.77 330.472C191.023 335.456 185.327 339.372 178.682 342.22C172.037 345.068 164.62 346.492 156.432 346.492C150.261 346.492 144.803 345.661 140.056 344C135.428 342.339 131.512 340.084 128.308 337.236C125.104 334.269 122.671 330.828 121.01 326.912C119.467 322.877 118.696 318.487 118.696 313.74C118.696 310.773 119.052 307.569 119.764 304.128L120.832 299.144H135.784L134.894 303.06C134.538 304.84 134.241 306.501 134.004 308.044C133.767 309.587 133.648 311.07 133.648 312.494C133.648 319.614 135.903 324.776 140.412 327.98C144.921 331.065 150.973 332.608 158.568 332.608C163.908 332.608 168.773 331.481 173.164 329.226C177.673 326.971 181.53 324.005 184.734 320.326C188.057 316.647 190.608 312.494 192.388 307.866C194.168 303.119 195.058 298.373 195.058 293.626C195.058 287.811 193.219 283.005 189.54 279.208C185.98 275.411 180.877 273.512 174.232 273.512C171.621 273.512 169.248 273.868 167.112 274.58C164.976 275.292 163.077 276.241 161.416 277.428C159.755 278.496 158.331 279.742 157.144 281.166C155.957 282.59 155.008 283.955 154.296 285.26H125.994ZM264.71 281.7C264.71 278.615 265.838 275.945 268.092 273.69C270.347 271.435 273.017 270.308 276.102 270.308C279.188 270.308 281.858 271.435 284.112 273.69C286.367 275.945 287.494 278.615 287.494 281.7C287.494 284.785 286.367 287.455 284.112 289.71C281.858 291.965 279.188 293.092 276.102 293.092C273.017 293.092 270.347 291.965 268.092 289.71C265.838 287.455 264.71 284.785 264.71 281.7ZM235.34 267.816C238.782 251.203 244.834 238.565 253.496 229.902C262.278 221.239 274.026 216.908 288.74 216.908C300.251 216.908 309.032 220.231 315.084 226.876C321.255 233.403 324.34 242.481 324.34 254.11C324.34 256.483 324.162 259.035 323.806 261.764C323.569 264.375 323.154 267.045 322.56 269.774L317.042 295.584C313.601 312.197 307.49 324.835 298.708 333.498C290.046 342.161 278.357 346.492 263.642 346.492C252.132 346.492 243.291 343.229 237.12 336.702C231.068 330.057 228.042 320.919 228.042 309.29C228.042 306.917 228.161 304.425 228.398 301.814C228.754 299.085 229.229 296.355 229.822 293.626L235.34 267.816ZM265.778 332.964C270.644 332.964 275.034 332.074 278.95 330.294C282.985 328.395 286.486 325.785 289.452 322.462C292.538 319.021 295.089 314.986 297.106 310.358C299.242 305.611 300.963 300.331 302.268 294.516L307.964 267.816C308.914 263.069 309.388 258.916 309.388 255.356C309.388 247.643 307.49 241.591 303.692 237.2C299.895 232.691 294.199 230.436 286.604 230.436C276.755 230.436 268.804 233.937 262.752 240.938C256.819 247.939 252.606 257.255 250.114 268.884L244.418 295.584C243.469 300.331 242.994 304.484 242.994 308.044C242.994 315.757 244.893 321.869 248.69 326.378C252.488 330.769 258.184 332.964 265.778 332.964ZM373.7 281.7C373.7 278.615 374.828 275.945 377.082 273.69C379.337 271.435 382.007 270.308 385.092 270.308C388.178 270.308 390.848 271.435 393.102 273.69C395.357 275.945 396.484 278.615 396.484 281.7C396.484 284.785 395.357 287.455 393.102 289.71C390.848 291.965 388.178 293.092 385.092 293.092C382.007 293.092 379.337 291.965 377.082 289.71C374.828 287.455 373.7 284.785 373.7 281.7ZM344.33 267.816C347.772 251.203 353.824 238.565 362.486 229.902C371.268 221.239 383.016 216.908 397.73 216.908C409.241 216.908 418.022 220.231 424.074 226.876C430.245 233.403 433.33 242.481 433.33 254.11C433.33 256.483 433.152 259.035 432.796 261.764C432.559 264.375 432.144 267.045 431.55 269.774L426.032 295.584C422.591 312.197 416.48 324.835 407.698 333.498C399.036 342.161 387.347 346.492 372.632 346.492C361.122 346.492 352.281 343.229 346.11 336.702C340.058 330.057 337.032 320.919 337.032 309.29C337.032 306.917 337.151 304.425 337.388 301.814C337.744 299.085 338.219 296.355 338.812 293.626L344.33 267.816ZM374.768 332.964C379.634 332.964 384.024 332.074 387.94 330.294C391.975 328.395 395.476 325.785 398.442 322.462C401.528 319.021 404.079 314.986 406.096 310.358C408.232 305.611 409.953 300.331 411.258 294.516L416.954 267.816C417.904 263.069 418.378 258.916 418.378 255.356C418.378 247.643 416.48 241.591 412.682 237.2C408.885 232.691 403.189 230.436 395.594 230.436C385.745 230.436 377.794 233.937 371.742 240.938C365.809 247.939 361.596 257.255 359.104 268.884L353.408 295.584C352.459 300.331 351.984 304.484 351.984 308.044C351.984 315.757 353.883 321.869 357.68 326.378C361.478 330.769 367.174 332.964 374.768 332.964Z" fill="white"/>
</g>
</g>
<defs>
<filter id="filter0_f" x="-126.917" y="-43.5574" width="933.889" height="877.93" filterUnits="userSpaceOnUse" color-interpolation-filters="sRGB">
<feFlood flood-opacity="0" result="BackgroundImageFix"/>
<feBlend mode="normal" in="SourceGraphic" in2="BackgroundImageFix" result="shape"/>
<feGaussianBlur stdDeviation="58.065" result="effect1_foregroundBlur"/>
</filter>
<filter id="filter1_f" x="-312.836" y="-160.28" width="811.364" height="929.484" filterUnits="userSpaceOnUse" color-interpolation-filters="sRGB">
<feFlood flood-opacity="0" result="BackgroundImageFix"/>
<feBlend mode="normal" in="SourceGraphic" in2="BackgroundImageFix" result="shape"/>
<feGaussianBlur stdDeviation="58.065" result="effect1_foregroundBlur"/>
</filter>
<filter id="filter2_d" x="118.696" y="216.908" width="314.634" height="131.584" filterUnits="userSpaceOnUse" color-interpolation-filters="sRGB">
<feFlood flood-opacity="0" result="BackgroundImageFix"/>
<feColorMatrix in="SourceAlpha" type="matrix" values="0 0 0 0 0 0 0 0 0 0 0 0 0 0 0 0 0 0 127 0" result="hardAlpha"/>
<feOffset dy="2"/>
<feComposite in2="hardAlpha" operator="out"/>
<feColorMatrix type="matrix" values="0 0 0 0 0 0 0 0 0 0 0 0 0 0 0 0 0 0 0.16 0"/>
<feBlend mode="normal" in2="BackgroundImageFix" result="effect1_dropShadow"/>
<feBlend mode="normal" in="SourceGraphic" in2="effect1_dropShadow" result="shape"/>
</filter>
<clipPath id="clip0">
<rect width="553" height="553" fill="white"/>
</clipPath>
</defs>
</svg>
