<svg width="2000" height="2000" viewBox="0 0 2000 2000" fill="none" xmlns="http://www.w3.org/2000/svg">
<path d="M954.75 1863.45L992.44 1144.19" stroke="#3D91FF" stroke-miterlimit="10"/>
<path d="M1007.56 855.81L1045.25 136.55" stroke="#3D91FF" stroke-miterlimit="10"/>
<path d="M909.62 1859.9L984.91 1143.61" stroke="#3D91FF" stroke-miterlimit="10"/>
<path d="M1015.09 856.39L1090.38 140.1" stroke="#3D91FF" stroke-miterlimit="10"/>
<path d="M864.74 1853.99L977.41 1142.63" stroke="#3D91FF" stroke-miterlimit="10"/>
<path d="M1022.59 857.37L1135.26 146.01" stroke="#3D91FF" stroke-miterlimit="10"/>
<path d="M1030.02 858.74L1179.77 154.26" stroke="#3D91FF" stroke-miterlimit="10"/>
<path d="M820.23 1845.74L969.98 1141.26" stroke="#3D91FF" stroke-miterlimit="10"/>
<path d="M1037.38 860.51L1223.78 164.83" stroke="#3D91FF" stroke-miterlimit="10"/>
<path d="M776.22 1835.17L962.62 1139.49" stroke="#3D91FF" stroke-miterlimit="10"/>
<path d="M732.81 1822.32L955.37 1137.35" stroke="#3D91FF" stroke-miterlimit="10"/>
<path d="M1044.63 862.65L1267.19 177.68" stroke="#3D91FF" stroke-miterlimit="10"/>
<path d="M1051.76 865.17L1309.86 192.79" stroke="#3D91FF" stroke-miterlimit="10"/>
<path d="M690.14 1807.21L948.24 1134.83" stroke="#3D91FF" stroke-miterlimit="10"/>
<path d="M1058.74 868.07L1351.68 210.12" stroke="#3D91FF" stroke-miterlimit="10"/>
<path d="M648.32 1789.88L941.26 1131.93" stroke="#3D91FF" stroke-miterlimit="10"/>
<path d="M1065.56 871.32L1392.54 229.61" stroke="#3D91FF" stroke-miterlimit="10"/>
<path d="M607.46 1770.39L934.44 1128.68" stroke="#3D91FF" stroke-miterlimit="10"/>
<path d="M567.68 1748.8L927.79 1125.06" stroke="#3D91FF" stroke-miterlimit="10"/>
<path d="M1072.2 874.94L1432.32 251.2" stroke="#3D91FF" stroke-miterlimit="10"/>
<path d="M529.09 1725.14L921.35 1121.1" stroke="#3D91FF" stroke-miterlimit="10"/>
<path d="M1078.65 878.9L1470.91 274.86" stroke="#3D91FF" stroke-miterlimit="10"/>
<path d="M491.78 1699.5L915.13 1116.81" stroke="#3D91FF" stroke-miterlimit="10"/>
<path d="M1084.87 883.19L1508.22 300.5" stroke="#3D91FF" stroke-miterlimit="10"/>
<path d="M1090.86 887.79L1544.13 328.05" stroke="#3D91FF" stroke-miterlimit="10"/>
<path d="M455.87 1671.95L909.14 1112.21" stroke="#3D91FF" stroke-miterlimit="10"/>
<path d="M1096.61 892.7L1578.55 357.45" stroke="#3D91FF" stroke-miterlimit="10"/>
<path d="M421.45 1642.55L903.39 1107.3" stroke="#3D91FF" stroke-miterlimit="10"/>
<path d="M1102.1 897.9L1611.39 388.61" stroke="#3D91FF" stroke-miterlimit="10"/>
<path d="M388.61 1611.39L897.9 1102.1" stroke="#3D91FF" stroke-miterlimit="10"/>
<path d="M1107.3 903.39L1642.55 421.45" stroke="#3D91FF" stroke-miterlimit="10"/>
<path d="M357.45 1578.55L892.7 1096.61" stroke="#3D91FF" stroke-miterlimit="10"/>
<path d="M1112.21 909.14L1671.95 455.87" stroke="#3D91FF" stroke-miterlimit="10"/>
<path d="M328.05 1544.13L887.79 1090.86" stroke="#3D91FF" stroke-miterlimit="10"/>
<path d="M1116.81 915.13L1699.5 491.78" stroke="#3D91FF" stroke-miterlimit="10"/>
<path d="M300.5 1508.22L883.19 1084.87" stroke="#3D91FF" stroke-miterlimit="10"/>
<path d="M274.86 1470.91L878.9 1078.65" stroke="#3D91FF" stroke-miterlimit="10"/>
<path d="M1121.1 921.35L1725.14 529.09" stroke="#3D91FF" stroke-miterlimit="10"/>
<path d="M251.2 1432.32L874.94 1072.2" stroke="#3D91FF" stroke-miterlimit="10"/>
<path d="M1125.06 927.79L1748.8 567.68" stroke="#3D91FF" stroke-miterlimit="10"/>
<path d="M229.61 1392.54L871.32 1065.56" stroke="#3D91FF" stroke-miterlimit="10"/>
<path d="M1128.68 934.44L1770.39 607.46" stroke="#3D91FF" stroke-miterlimit="10"/>
<path d="M210.12 1351.68L868.07 1058.74" stroke="#3D91FF" stroke-miterlimit="10"/>
<path d="M1131.93 941.26L1789.88 648.32" stroke="#3D91FF" stroke-miterlimit="10"/>
<path d="M1134.83 948.24L1807.21 690.14" stroke="#3D91FF" stroke-miterlimit="10"/>
<path d="M192.79 1309.86L865.17 1051.76" stroke="#3D91FF" stroke-miterlimit="10"/>
<path d="M177.68 1267.19L862.65 1044.63" stroke="#3D91FF" stroke-miterlimit="10"/>
<path d="M1137.35 955.37L1822.32 732.81" stroke="#3D91FF" stroke-miterlimit="10"/>
<path d="M164.83 1223.78L860.51 1037.38" stroke="#3D91FF" stroke-miterlimit="10"/>
<path d="M1139.49 962.62L1835.17 776.22" stroke="#3D91FF" stroke-miterlimit="10"/>
<path d="M154.26 1179.77L858.74 1030.02" stroke="#3D91FF" stroke-miterlimit="10"/>
<path d="M1141.26 969.98L1845.74 820.23" stroke="#3D91FF" stroke-miterlimit="10"/>
<path d="M146.01 1135.26L857.37 1022.59" stroke="#3D91FF" stroke-miterlimit="10"/>
<path d="M1142.63 977.41L1853.99 864.74" stroke="#3D91FF" stroke-miterlimit="10"/>
<path d="M1143.61 984.91L1859.9 909.62" stroke="#3D91FF" stroke-miterlimit="10"/>
<path d="M140.1 1090.38L856.39 1015.09" stroke="#3D91FF" stroke-miterlimit="10"/>
<path d="M136.55 1045.25L855.81 1007.56" stroke="#3D91FF" stroke-miterlimit="10"/>
<path d="M1144.19 992.44L1863.45 954.75" stroke="#3D91FF" stroke-miterlimit="10"/>
<path d="M135.37 1000H855.61" stroke="#3D91FF" stroke-miterlimit="10"/>
<path d="M1144.39 1000H1864.63" stroke="#3D91FF" stroke-miterlimit="10"/>
<path d="M855.81 992.44L136.55 954.75" stroke="#3D91FF" stroke-miterlimit="10"/>
<path d="M1863.45 1045.25L1144.19 1007.56" stroke="#3D91FF" stroke-miterlimit="10"/>
<path d="M140.1 909.62L856.39 984.91" stroke="#3D91FF" stroke-miterlimit="10"/>
<path d="M1143.61 1015.09L1859.9 1090.38" stroke="#3D91FF" stroke-miterlimit="10"/>
<path d="M1853.99 1135.26L1142.63 1022.59" stroke="#3D91FF" stroke-miterlimit="10"/>
<path d="M857.37 977.41L146.01 864.74" stroke="#3D91FF" stroke-miterlimit="10"/>
<path d="M1141.26 1030.02L1845.74 1179.77" stroke="#3D91FF" stroke-miterlimit="10"/>
<path d="M154.26 820.23L858.74 969.98" stroke="#3D91FF" stroke-miterlimit="10"/>
<path d="M1835.17 1223.78L1139.49 1037.38" stroke="#3D91FF" stroke-miterlimit="10"/>
<path d="M860.51 962.62L164.83 776.22" stroke="#3D91FF" stroke-miterlimit="10"/>
<path d="M177.68 732.81L862.65 955.37" stroke="#3D91FF" stroke-miterlimit="10"/>
<path d="M1137.35 1044.63L1822.32 1267.19" stroke="#3D91FF" stroke-miterlimit="10"/>
<path d="M1807.21 1309.86L1134.83 1051.76" stroke="#3D91FF" stroke-miterlimit="10"/>
<path d="M865.17 948.24L192.79 690.14" stroke="#3D91FF" stroke-miterlimit="10"/>
<path d="M1131.93 1058.74L1789.88 1351.68" stroke="#3D91FF" stroke-miterlimit="10"/>
<path d="M210.12 648.32L868.07 941.26" stroke="#3D91FF" stroke-miterlimit="10"/>
<path d="M1770.39 1392.54L1128.68 1065.56" stroke="#3D91FF" stroke-miterlimit="10"/>
<path d="M871.32 934.44L229.61 607.46" stroke="#3D91FF" stroke-miterlimit="10"/>
<path d="M1125.06 1072.2L1748.8 1432.32" stroke="#3D91FF" stroke-miterlimit="10"/>
<path d="M251.2 567.68L874.94 927.79" stroke="#3D91FF" stroke-miterlimit="10"/>
<path d="M878.9 921.35L274.86 529.09" stroke="#3D91FF" stroke-miterlimit="10"/>
<path d="M1725.14 1470.91L1121.1 1078.65" stroke="#3D91FF" stroke-miterlimit="10"/>
<path d="M1116.81 1084.87L1699.5 1508.22" stroke="#3D91FF" stroke-miterlimit="10"/>
<path d="M300.5 491.78L883.19 915.13" stroke="#3D91FF" stroke-miterlimit="10"/>
<path d="M887.79 909.14L328.05 455.87" stroke="#3D91FF" stroke-miterlimit="10"/>
<path d="M1671.95 1544.13L1112.21 1090.86" stroke="#3D91FF" stroke-miterlimit="10"/>
<path d="M357.45 421.45L892.7 903.39" stroke="#3D91FF" stroke-miterlimit="10"/>
<path d="M1107.3 1096.61L1642.55 1578.55" stroke="#3D91FF" stroke-miterlimit="10"/>
<path d="M1611.39 1611.39L1102.1 1102.1" stroke="#3D91FF" stroke-miterlimit="10"/>
<path d="M897.9 897.9L388.61 388.61" stroke="#3D91FF" stroke-miterlimit="10"/>
<path d="M421.45 357.45L903.39 892.7" stroke="#3D91FF" stroke-miterlimit="10"/>
<path d="M1096.61 1107.3L1578.55 1642.55" stroke="#3D91FF" stroke-miterlimit="10"/>
<path d="M909.14 887.79L455.87 328.05" stroke="#3D91FF" stroke-miterlimit="10"/>
<path d="M1544.13 1671.95L1090.86 1112.21" stroke="#3D91FF" stroke-miterlimit="10"/>
<path d="M1084.87 1116.81L1508.22 1699.5" stroke="#3D91FF" stroke-miterlimit="10"/>
<path d="M491.78 300.5L915.13 883.19" stroke="#3D91FF" stroke-miterlimit="10"/>
<path d="M1470.91 1725.14L1078.65 1121.1" stroke="#3D91FF" stroke-miterlimit="10"/>
<path d="M921.35 878.9L529.09 274.86" stroke="#3D91FF" stroke-miterlimit="10"/>
<path d="M1072.2 1125.06L1432.32 1748.8" stroke="#3D91FF" stroke-miterlimit="10"/>
<path d="M567.68 251.2L927.79 874.94" stroke="#3D91FF" stroke-miterlimit="10"/>
<path d="M1392.54 1770.39L1065.56 1128.68" stroke="#3D91FF" stroke-miterlimit="10"/>
<path d="M934.44 871.32L607.46 229.61" stroke="#3D91FF" stroke-miterlimit="10"/>
<path d="M648.32 210.12L941.26 868.07" stroke="#3D91FF" stroke-miterlimit="10"/>
<path d="M1058.74 1131.93L1351.68 1789.88" stroke="#3D91FF" stroke-miterlimit="10"/>
<path d="M948.24 865.17L690.14 192.79" stroke="#3D91FF" stroke-miterlimit="10"/>
<path d="M1309.86 1807.21L1051.76 1134.83" stroke="#3D91FF" stroke-miterlimit="10"/>
<path d="M1044.63 1137.35L1267.19 1822.32" stroke="#3D91FF" stroke-miterlimit="10"/>
<path d="M732.81 177.68L955.37 862.65" stroke="#3D91FF" stroke-miterlimit="10"/>
<path d="M1223.78 1835.17L1037.38 1139.49" stroke="#3D91FF" stroke-miterlimit="10"/>
<path d="M962.62 860.51L776.22 164.83" stroke="#3D91FF" stroke-miterlimit="10"/>
<path d="M1030.02 1141.26L1179.77 1845.74" stroke="#3D91FF" stroke-miterlimit="10"/>
<path d="M820.23 154.26L969.98 858.74" stroke="#3D91FF" stroke-miterlimit="10"/>
<path d="M1135.26 1853.99L1022.59 1142.63" stroke="#3D91FF" stroke-miterlimit="10"/>
<path d="M977.41 857.37L864.74 146.01" stroke="#3D91FF" stroke-miterlimit="10"/>
<path d="M909.62 140.1L984.91 856.39" stroke="#3D91FF" stroke-miterlimit="10"/>
<path d="M1015.09 1143.61L1090.38 1859.9" stroke="#3D91FF" stroke-miterlimit="10"/>
<path d="M992.44 855.81L954.75 136.55" stroke="#3D91FF" stroke-miterlimit="10"/>
<path d="M1045.25 1863.45L1007.56 1144.19" stroke="#3D91FF" stroke-miterlimit="10"/>
<path d="M1000 1864.63V1144.39" stroke="#3D91FF" stroke-miterlimit="10"/>
<path d="M1000 135.37V855.61" stroke="#3D91FF" stroke-miterlimit="10"/>
</svg>
